<?xml version="1.0" encoding="utf-8"?>
<!DOCTYPE svg PUBLIC "-//W3C//DTD SVG 1.0//EN" "http://www.w3.org/TR/2001/REC-SVG-20010904/DTD/svg10.dtd">
<svg version="1.0" xmlns="http://www.w3.org/2000/svg" width="735px" height="222px" viewBox="0 0 735 222" preserveAspectRatio="xMidYMid meet">
 <g fill="#9ecffa">
  <path d="M 85 212 c -24.6 -5.2 -45.4 -18.6 -60.7 -38.8 l -5.4 -7.2 -3.9 -7.8 c -4.5 -9 -8.8 -21.2 -9.7 -27.7 l -0.6 -4.5 -0.8 0 -0.9 0 0 -15 0 -15 0.9 0 0.8 0 0.7 -5.2 c 0.9 -6.7 3.8 -15.2 8.5 -25.3 l 3.8 -8 4.6 -6.5 4.5 -6.5 6.6 -6.6 6.6 -6.7 6.5 -4.7 c 13 -9.3 27.5 -15.3 43.7 -18.1 l 9.3 -1.6 12 0.5 12 0.6 8.2 2 8.2 2.1 9.4 4.3 9.4 4.4 6.3 4.3 6.3 4.2 7.4 7.1 7.5 7.1 6.3 9.6 c 3.5 5.2 7.1 11.3 8 13.5 2.1 5 6.5 17.6 6.5 18.6 l 0 0.8 -4.2 1.2 c -7 1.8 -26.6 5.9 -28.8 5.9 l -2 0 0 -1.4 c 0 -0.8 -2.1 -5.5 -4.6 -10.5 l -4.6 -9.2 -5.8 -6.3 -5.9 -6.3 -6.1 -4.1 -6.1 -4.2 -5.9 -2.4 c -3.3 -1.4 -8.6 -3 -11.7 -3.7 l -5.8 -1.3 -9.5 0.1 -9.5 0 -7.8 2.2 c -4.3 1.1 -10 3.2 -12.6 4.6 -5.9 3 -16.2 11.1 -20.6 16.2 -4.7 5.6 -11.2 16 -13.2 21.1 l -1.6 4.4 1.4 0.8 1.4 0.9 -1.3 1.3 -1.2 1.2 0 1.7 0 1.7 -1.2 0.4 -1.3 0.5 0.1 9.9 0.1 9.9 1.7 6.4 c 2.1 7.9 5.4 14.6 11.2 22.7 l 4.3 6.1 6.2 5.6 6.2 5.5 8.1 4 8.1 4 8.7 1.2 8.6 1.3 8.4 -0.5 8.3 -0.6 7.5 -2.6 c 4.1 -1.5 9.2 -3.1 11.3 -3.5 l 3.7 -0.8 4.1 -2.9 c 2.2 -1.5 6.5 -5.2 9.5 -8.1 l 5.4 -5.4 3.5 -5.2 c 3.7 -5.7 7.8 -14.9 9.5 -21.4 l 1 -4.2 1.8 -0.5 c 0.9 -0.3 7.3 -1.7 14.2 -3.1 6.9 -1.3 14.2 -2.9 16.4 -3.4 l 3.9 -1 -0.6 6.7 -0.6 6.7 -2.5 9.8 -2.5 9.8 -3.5 7.2 c -1.9 4 -5.7 10.6 -8.4 14.7 l -4.9 7.5 -7.9 7.8 -7.9 7.9 -6.6 4.4 c -12.4 8.2 -24.7 13.3 -38.7 16 l -7.4 1.4 -12.6 -0.1 -12.7 0 -8.5 -1.9 z "/>
  <path d="M 389.7 159.5 l -4.8 -1.3 -4.1 -2.9 -4.2 -2.8 -2.8 -4.5 c -1.5 -2.4 -3.3 -6 -3.8 -8 l -1 -3.5 0 -7.1 0 -7.2 2 -6.5 2 -6.5 3.8 -5.6 3.7 -5.5 4.1 -3.1 4.2 -3 4.3 -1.6 4.4 -1.5 6.8 -0.1 6.8 0 5.5 2.7 5.4 2.7 2.5 3.2 c 3.2 4.2 5.1 9 6 14.9 l 0.7 4.7 -0.7 6.5 -0.7 6.5 -21.9 0 -21.9 0 0 1.8 c 0 0.9 0.5 3.4 1 5.4 l 1.1 3.8 3.4 2.6 3.5 2.6 7 -0.4 6.9 -0.4 4.4 -3.1 4.5 -3.1 3.8 5 3.8 5 -3.5 3.3 -3.6 3.2 -5.4 2.1 -5.4 2 -6.5 0.6 -6.5 0.5 -4.8 -1.4 z  m 24.3 -46.4 l 0 -4.9 -3.1 -2.6 -3.1 -2.6 -3.9 0 -4 0 -3 1.6 -3 1.5 -3 4.7 c -1.6 2.5 -2.9 5.2 -2.9 5.9 l 0 1.3 13 0 13 0 0 -4.9 z "/>
  <path d="M 452.2 160 l -3.2 -0.8 -3.9 -2.5 -3.9 -2.6 -2.2 -4.6 -2.3 -4.7 0.7 -5.6 0.7 -5.7 2.5 -3.8 2.5 -3.8 4.5 -2.9 4.5 -2.8 4.7 -1.1 c 2.6 -0.7 9 -1.5 14.2 -1.9 l 9.5 -0.7 0.3 -5.4 0.3 -5.3 -1.6 -1.9 -1.7 -1.8 -2.8 -0.6 -2.8 -0.6 -3.6 1.5 -3.6 1.5 -1.8 3.1 -1.7 3 -8.7 0 -8.8 0 0 -1 c 0 -0.6 0.7 -2.7 1.6 -4.8 l 1.5 -3.7 2.7 -2.8 2.7 -2.9 4.5 -2.3 c 5.9 -2.9 8.8 -3.6 16.4 -3.6 l 6.3 -0.1 4.1 1.3 4.1 1.2 3.7 3 3.7 3.1 1.8 4 1.9 4.1 0 3.2 c 0 1.8 -1.4 11.9 -3.1 22.5 l -3.1 19.3 0.7 4.8 0.6 4.7 -8.5 0 -8.4 0 -0.6 -1.6 c -0.3 -0.9 -0.6 -2.4 -0.6 -3.5 l 0 -2 -3.5 2.6 -3.4 2.7 -4.7 1.4 c -5.1 1.5 -7.2 1.6 -12.2 0.4 z  m 18.7 -14.9 c 2 -1.1 4.2 -2.5 4.8 -3.3 0.9 -1.1 3.3 -11.4 3.3 -14.1 l 0 -1 -6.4 0.6 -6.5 0.6 -3.5 1.5 -3.6 1.5 -2 3.3 -2 3.3 0 2.5 0 2.6 1.6 2.2 1.5 2.2 4.5 0 4.5 0 3.8 -1.9 z "/>
  <path d="M 283 158.7 c 0 -0.6 3.6 -21.9 8 -47.2 4.4 -25.3 8 -46.1 8 -46.2 0 -0.2 7.8 -0.3 17.3 -0.3 l 17.3 0 6 1.1 5.9 1.1 4.8 2.5 4.7 2.6 2.6 3.4 c 1.4 1.8 3.2 5 4.1 7.1 l 1.6 3.7 0 7 0 7 -2.7 5.6 -2.6 5.7 -4.6 4.2 -4.5 4.2 -5.7 2.5 -5.7 2.6 -15.4 0.6 -15.5 0.6 -1.7 9.5 c -0.9 5.2 -2.2 12.8 -2.9 16.8 l -1.2 7.2 -8.9 0 -8.9 0 0 -1.3 z  m 52.7 -49.8 l 4.3 -2.1 2.2 -3.1 2.2 -3.1 0.4 -5.6 0.4 -5.7 -1.7 -3.2 -1.6 -3.3 -3.5 -1.4 -3.5 -1.5 -10.2 0.3 -10.2 0.3 -2.6 15.3 -2.6 15.2 11 0 11.1 0 4.3 -2.1 z "/>
  <path d="M 515 110.3 l 8.6 -49.8 8.7 -0.3 8.7 -0.3 0 0.9 c 0 0.4 -2 12.4 -4.5 26.6 -2.5 14.2 -4.4 26 -4.2 26.3 0.3 0.2 5.8 -5 12.2 -11.7 l 11.8 -12 11.5 0 11.5 0 -15.3 14.8 -15.3 14.7 10.2 20.3 10.1 20.2 -9.7 0 -9.8 0 -6.4 -14.5 -6.3 -14.5 -4.9 4.1 -4.9 4.1 0 1.6 c 0 1 -0.7 5.6 -1.6 10.5 l -1.6 8.7 -8.7 0 -8.7 0 8.6 -49.7 z "/>
 </g>
 <g fill="#54adf7">
  <path d="M 94.5 176.3 c -1.1 -0.2 -2.9 -0.6 -4 -0.8 l -2.1 -0.4 -0.2 -5.7 -0.2 -5.7 2.5 -3.3 2.5 -3.3 0 -3.4 0 -3.4 -4.1 -5.2 -4.1 -5.2 -3.2 -1.5 c -1.7 -0.9 -3.8 -2.6 -4.7 -3.7 l -1.7 -2.1 -3.6 3.2 -3.6 3.1 -3.6 0.7 -3.7 0.7 -7.5 -0.6 -7.6 -0.6 -1.3 -1.8 c -1.9 -2.5 -4.2 -10.6 -5.4 -18.8 l -1 -7 0.6 -5.7 0.7 -5.8 0.7 0 c 0.5 0 2.9 4.3 5.6 9.5 2.6 5.2 5.1 9.5 5.5 9.5 0.3 0 1.7 -1.1 3 -2.5 l 2.4 -2.5 4 -1.2 4.1 -1.2 5 -3.8 5 -3.7 4.5 -0.7 4.5 -0.6 4.3 -4.1 4.2 -4.1 0 -1.8 c 0 -0.9 -0.5 -2.8 -1.1 -4.2 l -1.2 -2.4 -2.4 -0.7 -2.4 -0.6 -1.5 -3.6 -1.5 -3.6 0.9 -0.9 0.9 -0.9 -0.8 -4.5 -0.9 -4.5 1.4 -3.3 1.4 -3.3 2.7 -2.1 2.7 -2.1 3.4 -0.7 3.4 -0.6 2.5 0.6 2.5 0.6 3.1 2.8 3 2.7 1.1 4 1.2 4 0 8.2 c 0.1 4.4 0.4 8.4 0.7 8.7 l 0.6 0.6 12.4 0.1 12.4 0.2 2.7 1.3 c 1.4 0.8 3.5 2.5 4.6 3.9 l 2.1 2.6 0.6 3.1 0.7 3.1 3 4.6 3 4.6 -0.7 10 -0.6 9.9 -4.9 6.6 -4.8 6.5 -1.5 6 c -0.8 3.3 -2 9.2 -2.7 13.1 l -1.3 7 -5.7 2.3 c -3.2 1.3 -8.4 2.9 -11.6 3.7 l -5.9 1.4 -8.5 -0.1 c -4.7 -0.1 -9.4 -0.3 -10.5 -0.6 z "/>
  <path d="M 701.7 159.6 c -4.9 -1.8 -7.6 -4.3 -9.3 -8.3 l -1.4 -3.2 0 -4.3 0 -4.3 3 -17.5 c 1.6 -9.6 3 -17.8 3 -18.2 l 0 -0.8 -5.1 0 -5.1 0 0.5 -2.3 c 0.4 -1.2 0.9 -4.1 1.3 -6.4 l 0.6 -4.2 5.2 -0.3 5.1 -0.3 1.4 -8.8 1.5 -8.7 8.8 0 c 4.8 0 8.8 0.2 8.8 0.4 0 0.2 -0.7 4 -1.5 8.3 -0.8 4.3 -1.5 8.1 -1.5 8.6 l 0 0.7 5.8 0 5.9 0 -1.2 6.2 -1.1 6.3 -6 0.3 -6 0.3 -2.8 17.4 c -1.6 9.5 -2.8 18.5 -2.8 19.9 l 0 2.6 1.2 1.5 1.2 1.5 4.1 0 4 0 -0.7 6.3 -0.7 6.2 -0.9 0.9 -0.9 0.9 -5.3 0.4 -5.3 0.3 -3.8 -1.4 z "/>
  <path d="M 578 159.1 c 0 -0.5 3.6 -21.6 8 -46.9 4.4 -25.2 8 -46.2 8 -46.5 l 0 -0.7 29.9 0 29.9 0 -0.8 3.8 c -0.4 2 -1.1 5.4 -1.4 7.5 l -0.7 3.7 -20.4 0 -20.5 0 -0.5 2.2 c -1.3 6.3 -3.5 19.3 -3.5 21.4 l 0 2.4 18 0 18 0 -0.6 2.8 c -0.3 1.5 -0.8 4.7 -1.2 7.2 l -0.8 4.5 -18.4 0.5 -18.4 0.5 -2.8 16 c -1.5 8.8 -3 17.5 -3.3 19.3 l -0.6 3.2 -8.9 0 -9 0 0 -0.9 z "/>
  <path d="M 652.1 144.3 c 1.5 -8.7 4.2 -24.5 6.1 -35 l 3.2 -19.3 8.8 0 c 4.9 0 8.8 0.2 8.8 0.5 0 0.6 -10.9 63.3 -11.6 66.8 l -0.6 2.7 -8.7 0 -8.8 0 2.8 -15.7 z "/>
  <path d="M 175 114.7 l 0 -3.4 5.8 -1.2 c 8.4 -1.8 26.3 -6.2 27.9 -6.8 l 1.4 -0.6 -0.3 4.4 -0.3 4.4 -15.5 3.2 c -8.5 1.8 -16.3 3.3 -17.2 3.3 l -1.8 0 0 -3.3 z "/>
  <path d="M 175 106.1 l 0 -2.1 2.3 -0.5 c 1.2 -0.3 8.7 -2 16.7 -3.9 l 14.5 -3.4 0.9 0.8 0.9 0.9 -0.6 1.3 -0.5 1.4 -14.9 3.2 c -8.2 1.8 -15.9 3.5 -17.1 3.9 l -2.2 0.5 0 -2.1 z "/>
  <path d="M 174 99.2 l 0 -2.8 13.3 -3.2 c 7.2 -1.8 14.8 -3.5 16.8 -3.9 l 3.6 -0.5 0.6 2.3 c 0.3 1.3 0.5 2.4 0.4 2.5 -0.4 0.4 -32.3 8.4 -33.5 8.4 l -1.2 0 0 -2.8 z "/>
  <path d="M 42.3 93.3 c -0.7 -0.2 -1.3 -0.9 -1.3 -1.5 0 -1.1 5.1 -12.8 5.6 -12.8 0.1 0 1.4 0.4 2.8 1 l 2.6 1 0 3.5 0 3.6 -2.2 2.9 -2.2 3 -2 -0.1 c -1.2 0 -2.7 -0.3 -3.3 -0.6 z "/>
  <path d="M683.2 70.8 C 683.2 76.1 678.8 80.4 673.5 80.4 668.2 80.4 663.9 76.1 663.9 70.8 663.9 65.5 668.2 61.2 673.5 61.2 678.8 61.2 683.2 65.5 683.2 70.8 Z M668.5 78.8 "/>
 </g>
</svg>